<svg xmlns="http://www.w3.org/2000/svg" width="48" height="48" viewBox="0 0 48 48" fill="none">
  <path d="M11.144 32.5C11.0747 32.5 11.04 32.4567 11.04 32.37L11.092 14.508C11.092 14.4387 11.1267 14.404 11.196 14.404H14.368C14.4373 14.404 14.498 14.4387 14.55 14.508L16.916 17.94L19.282 14.508C19.334 14.4387 19.3947 14.404 19.464 14.404H22.662C22.7313 14.404 22.766 14.4387 22.766 14.508L22.818 32.37C22.818 32.4567 22.7833 32.5 22.714 32.5H19.776C19.7067 32.5 19.672 32.4567 19.672 32.37L19.646 19.11L16.916 23.062L14.212 19.11L14.186 32.37C14.186 32.4567 14.1513 32.5 14.082 32.5H11.144ZM29.7888 32.76C28.8355 32.76 27.9688 32.526 27.1888 32.058C26.4262 31.5727 25.8195 30.9313 25.3688 30.134C24.9182 29.3367 24.6928 28.444 24.6928 27.456L24.7188 19.344C24.7188 18.3907 24.9355 17.524 25.3688 16.744C25.8195 15.9467 26.4262 15.314 27.1888 14.846C27.9688 14.3607 28.8355 14.118 29.7888 14.118C30.7422 14.118 31.6002 14.352 32.3628 14.82C33.1255 15.288 33.7322 15.9207 34.1828 16.718C34.6335 17.498 34.8588 18.3733 34.8588 19.344V20.54C34.8588 20.6093 34.8242 20.644 34.7548 20.644H31.8428C31.7735 20.644 31.7388 20.6093 31.7388 20.54V19.344C31.7388 18.772 31.5482 18.278 31.1668 17.862C30.8028 17.446 30.3435 17.238 29.7888 17.238C29.1648 17.238 28.6882 17.4547 28.3588 17.888C28.0295 18.304 27.8648 18.7893 27.8648 19.344V27.456C27.8648 28.0973 28.0468 28.6173 28.4108 29.016C28.7922 29.4147 29.2515 29.614 29.7888 29.614C30.3435 29.614 30.8028 29.3973 31.1668 28.964C31.5482 28.5133 31.7388 28.0107 31.7388 27.456V26.26C31.7388 26.1907 31.7735 26.156 31.8428 26.156H34.7808C34.8502 26.156 34.8848 26.1907 34.8848 26.26V27.456C34.8848 28.444 34.6508 29.3367 34.1828 30.134C33.7322 30.9313 33.1255 31.5727 32.3628 32.058C31.6002 32.526 30.7422 32.76 29.7888 32.76Z" fill="#275EB3"></path>
</svg>