<svg xmlns="http://www.w3.org/2000/svg" width="24" height="19" viewBox="0 0 24 19" fill="none">
  <path d="M0.103999 18.3818C0.0346658 18.3818 -8.41916e-07 18.3385 -8.41916e-07 18.2518L0.0519992 0.389835C0.0519992 0.320502 0.0866658 0.285835 0.155999 0.285835H3.328C3.39733 0.285835 3.458 0.320502 3.51 0.389835L5.876 3.82184L8.242 0.389835C8.294 0.320502 8.35467 0.285835 8.424 0.285835H11.622C11.6913 0.285835 11.726 0.320502 11.726 0.389835L11.778 18.2518C11.778 18.3385 11.7433 18.3818 11.674 18.3818H8.736C8.66667 18.3818 8.632 18.3385 8.632 18.2518L8.606 4.99183L5.876 8.94384L3.172 4.99183L3.146 18.2518C3.146 18.3385 3.11133 18.3818 3.042 18.3818H0.103999ZM18.7488 18.6418C17.7955 18.6418 16.9288 18.4078 16.1488 17.9398C15.3862 17.4545 14.7795 16.8132 14.3288 16.0158C13.8782 15.2185 13.6528 14.3258 13.6528 13.3378L13.6788 5.22583C13.6788 4.2725 13.8955 3.40584 14.3288 2.62584C14.7795 1.8285 15.3862 1.19584 16.1488 0.727835C16.9288 0.242502 17.7955 -0.000164509 18.7488 -0.000164509C19.7022 -0.000164509 20.5602 0.233836 21.3228 0.701836C22.0855 1.16983 22.6922 1.8025 23.1428 2.59983C23.5935 3.37983 23.8188 4.25517 23.8188 5.22583V6.42184C23.8188 6.49117 23.7842 6.52584 23.7148 6.52584H20.8028C20.7335 6.52584 20.6988 6.49117 20.6988 6.42184V5.22583C20.6988 4.65383 20.5082 4.15984 20.1268 3.74384C19.7628 3.32784 19.3035 3.11984 18.7488 3.11984C18.1248 3.11984 17.6482 3.3365 17.3188 3.76983C16.9895 4.18583 16.8248 4.67117 16.8248 5.22583V13.3378C16.8248 13.9792 17.0068 14.4992 17.3708 14.8978C17.7522 15.2965 18.2115 15.4958 18.7488 15.4958C19.3035 15.4958 19.7628 15.2792 20.1268 14.8458C20.5082 14.3952 20.6988 13.8925 20.6988 13.3378V12.1418C20.6988 12.0725 20.7335 12.0378 20.8028 12.0378H23.7408C23.8102 12.0378 23.8448 12.0725 23.8448 12.1418V13.3378C23.8448 14.3258 23.6108 15.2185 23.1428 16.0158C22.6922 16.8132 22.0855 17.4545 21.3228 17.9398C20.5602 18.4078 19.7022 18.6418 18.7488 18.6418Z" fill="white"></path>
</svg>